<?xml version="1.0" encoding="UTF-8"?>
<svg id="Layer_1" data-name="Layer 1" xmlns="http://www.w3.org/2000/svg" viewBox="0 0 618.72 853.5">
  <defs>
    <style>
      .cls-1 {
        fill: #212121;
      }

      .cls-2 {
        fill: #fff;
      }
    </style>
  </defs>
  <path d="M490.82.6c.8-.3,1.7-.4,2.7-.4M375.12.3l.6-.3.6.2"/>
  <g>
    <path class="cls-1" d="M540.25,781.05c-1.75-217.23-5.25-260.96-12.88-356.54-1.75-22.26-3.82-47.55-6.2-78.56-11.29-153.14-45.48-179.22-50.09-182.25-14.95-17.65-57.41-28.63-64.41-30.53l-4.93-7.79-.64-.32c-22.58-10.34-62.5-51.05-62.82-51.37l-.48-.48-.8-.16c-13.84-2.7-58.68-3.34-93.99-3.34-15.27,0-26.24.16-26.4.16h-.48l-.48.16c-16.86,7-69.81,48.98-72.2,50.73l-.32.32-3.66,6.68c-87.78,19.88-111.32,97.48-115.3,112.91C18.48,263.58.99,420.38.35,455.84c-.8,36.26,0,319.96,0,322.83v2.23l2.23.16c.16,0,14.79.95,30.85.95,32.92,0,39.76-3.82,42.14-6.68,1.11-1.27,1.43-2.7,1.11-4.29-5.25-26.08-5.09-154.73-2.23-190.52,1.91,14.95,3.34,44.69,4.29,64.41,1.59,32.44,2.07,38.01,3.18,39.6.95,1.11,2.39,3.18,38.8,6.84,20.99,2.07,46.91,4.13,69.5,5.25,21.79,1.11,43.89,1.75,67.43,1.75,28.47,0,60.43-.8,97.33-2.54,68.86-3.18,98.44-16.38,101.46-24.65,1.11-3.02-.8-38.01-6.84-141.38-1.59-25.76-3.18-52.96-4.45-76.33,5.88,63.77,12.72,152.35,12.88,153.62,0,.48,1.91,45.16,4.45,89.37,5.25,91.28,7.95,91.76,10.97,92.08,5.72.8,11.77,1.27,18.13,1.27,25.13,0,46.12-6.36,47.07-6.68l1.75-.48-.16-1.59Z"/>
    <g>
      <g>
        <g>
          <path class="cls-2" d="M499.54,786.78c-6.36,0-12.4-.48-18.13-1.27-2.86-.48-5.72-.8-10.97-92.08-2.54-44.21-4.29-88.9-4.45-89.37-.16-1.27-7-89.85-12.88-153.62,1.27,23.38,2.86,50.57,4.45,76.33,6.2,103.53,7.95,138.35,6.84,141.38-3.02,8.11-32.6,21.47-101.46,24.65-37.05,1.75-68.86,2.54-97.33,2.54-23.7,0-45.64-.64-67.43-1.75-22.58-1.11-48.5-3.18-69.5-5.25-36.58-3.66-38.01-5.57-38.8-6.84-1.11-1.59-1.59-7.16-3.18-39.6-.95-19.72-2.39-49.62-4.29-64.41-2.86,35.78-2.86,164.43,2.23,190.52.32,1.59,0,3.02-1.11,4.29-2.39,2.86-9.22,6.68-42.14,6.68-15.9,0-30.69-.95-30.85-.95l-2.23-.16v-2.23c0-2.86-.8-286.73,0-322.83.8-35.46,18.29-192.42,23.85-215.16,3.82-15.43,27.51-93.03,115.3-112.91l3.66-6.68.32-.32c2.23-1.75,55.34-43.73,72.2-50.73l.48-.16h.48c.16,0,11.13-.16,26.4-.16,35.15,0,80.15.64,93.99,3.34l.8.16.48.48c.48.48,40.23,41.19,62.82,51.37l.64.32,4.93,7.79c7.16,1.75,49.46,12.88,64.41,30.53,4.61,2.86,38.8,29.1,50.09,182.25,2.23,31.01,4.29,56.3,6.2,78.56,7.79,95.58,11.29,139.31,12.88,356.54v1.75l-1.75.48c-.79.16-21.95,6.52-46.91,6.52ZM483,780.89c5.25.64,10.81,1.11,16.54,1.11,20.36,0,38.48-4.45,43.89-5.88-1.75-215.48-5.25-259.06-12.88-354.31-1.75-22.26-3.82-47.71-6.2-78.56-11.61-156.96-47.71-178.43-48.03-178.59l-.48-.16-.32-.32c-14.79-17.81-62.66-29.26-63.13-29.42l-.95-.16-5.25-8.11c-22.26-10.5-58.2-46.6-63.13-51.68-15.11-2.7-64.09-3.18-92.24-3.18-13.36,0-23.54.16-25.92.16-15.9,6.84-65.36,45.8-70.13,49.62l-4.29,7.63-1.11.16c-85.88,18.77-108.93,94.62-112.75,109.57-5.72,22.74-23.06,178.91-23.85,214.21-.8,34.35,0,293.57,0,320.6,4.61.32,16.06.8,28.31.8,31.96,0,37.53-3.82,38.48-4.93.16-.16.16-.32.16-.32-4.77-23.85-6.84-194.97-.16-203.24.48-.64,1.27-1.11,2.07-1.11.48,0,1.43.16,2.23,1.11,3.5,4.61,5.25,34.35,7.32,75.86.8,16.38,1.59,33.24,2.39,36.89,6.68,2.7,59.16,7.95,104.64,10.34,21.63,1.11,43.73,1.75,67.27,1.75,28.47,0,60.27-.8,97.17-2.54,73.79-3.34,95.58-17.81,97.17-21.47.8-5.57-3.34-76.65-7.16-139.63-7.95-133.74-7.79-140.1-6.36-141.85l.64-.8h1.11c2.07,0,2.54,2.07,2.7,3.34,4.77,23.7,19.08,208.17,19.72,215.96,3.02,63.93,8.43,166.66,12.56,177.16Z"/>
          <path class="cls-2" d="M297.26,350.09c-7.16,0-38.96-12.4-64.25-24.01-20.99-9.54-56.77-27.19-61.54-38.64-9.06-21.47-4.93-26.88,36.26-67.9-7-.64-31.01,4.13-45.96,7.16-12.56,2.54-23.54,4.77-27.99,4.77-1.75.48-4.93.64-7.47-1.59-4.61-3.98-5.09-13.52-1.75-28.94,7.32-32.6,25.92-82.06,26.08-82.54l4.45,1.75c-.16.48-18.61,49.46-25.92,81.9-4.13,18.13-1.27,23.06.16,24.17,1.27,1.11,3.02.64,3.18.64l.32-.16h.48c3.66,0,15.27-2.39,27.35-4.77,40.23-8.11,50.09-9.06,52.32-4.93.64,1.11.8,2.86-1.43,5.25-41.82,41.67-43.41,44.69-35.78,63.13,3.02,7.16,26.08,21.15,60.27,36.58,25.92,11.77,48.19,19.88,57.25,22.1-16.86-23.54-79.35-141.69-85.72-163.16-7.32-24.65,13.68-108.93,14.63-112.59l4.61,1.11c-.16.8-21.63,86.51-14.63,110.05,7.63,25.6,77.61,154.73,87.15,164.43,1.59,1.59,1.43,3.02,1.11,3.98-.16.95-.95,2.23-3.18,2.23h0Z"/>
          <path class="cls-2" d="M280.08,315.9l-3.98-2.54c.16-.16,12.56-19.4,45.96-86.19,33.24-66.47,20.04-153.46,19.88-154.42l4.77-.8c.16.95,13.52,89.53-20.36,157.28-33.55,67.27-45.8,86.03-46.28,86.67Z"/>
          <path class="cls-2" d="M306.8,349.77h-.64c-4.61-.16-13.04-7.32-15.43-9.38l3.18-3.5c4.45,3.98,10.34,8.11,12.25,8.27h.48c14.47,0,29.74-13.2,47.39-28.47,6.84-5.88,13.99-12.09,21.63-18.13,9.54-7.47,14.31-14.63,13.99-20.83-.32-5.72-4.93-9.22-6.04-10.02-2.86-.8-15.27-5.09-32.76-28.78-6.68-9.06-8.59-14.63-5.88-17.97,3.82-4.77,14.63-.64,18.13.95,2.86.8,37.69,9.54,55.66,11.61,2.7.32,5.09.64,7.16.95,4.61.64,7.79,1.11,9.06.16,1.91-1.43,2.7-8.27,3.34-17.02,2.07-23.38-27.35-83.49-27.67-84.13l4.29-2.07c1.27,2.54,30.22,61.86,27.99,86.67-1.11,12.09-1.91,17.65-5.25,20.36-2.86,2.23-6.52,1.75-12.72.8-2.07-.32-4.29-.64-7-.95-19.08-2.07-55.02-11.29-56.45-11.77l-.32-.16c-6.04-2.54-11.77-3.5-12.72-2.39,0,0-1.27,2.23,6.04,12.25,18.13,24.49,30.22,27.03,30.37,27.03h.48l.32.16c.32.16,8.11,4.93,8.75,13.99.48,7.95-4.93,16.38-15.9,24.97-7.63,5.88-14.63,12.09-21.47,17.97-18.13,15.58-34.03,29.42-50.25,29.42Z"/>
          <path class="cls-2" d="M84.64,567.32l-4.77-.16c0-.95,4.61-94.62,11.93-166.03-.95-4.77-9.06-49.62.16-86.99,16.38-66.47-21.31-142.97-21.63-143.6l4.29-2.07c.32.8,38.8,78.72,21.95,146.94-9.38,37.69,0,84.76,0,85.24v.64c-7.32,71.09-11.93,165.07-11.93,166.03Z"/>
          <path class="cls-2" d="M446.43,388.89c-.64-2.54-15.43-62.5-7.79-100.66,7.47-38.01,41.03-117.84,42.46-121.34l4.45,1.91c-.32.8-34.83,82.85-42.3,120.38-7.32,37.21,7.63,97.96,7.79,98.6l-4.61,1.11Z"/>
          <g>
            <path class="cls-2" d="M46.31,747.82c-20.51,0-35.78-2.86-35.94-2.86l.64-3.18c.32,0,33.87,6.2,68.7,0l.64,3.18c-12.09,2.23-23.7,2.86-34.03,2.86Z"/>
            <path class="cls-2" d="M497.95,759.11c-11.61,0-20.2-1.27-20.99-1.43l.48-3.18c.48,0,42.94,6.52,67.43-9.54l1.75,2.7c-14.31,9.38-33.87,11.45-48.66,11.45Z"/>
            <path class="cls-2" d="M269.43,648.27c-94.62,0-179.38-10.18-180.81-10.34l.32-3.18c2.54.32,249.99,30.06,371.33-12.72l1.11,3.02c-50.89,17.97-124.04,23.22-191.95,23.22Z"/>
            <path class="cls-2" d="M269.43,640.31c-94.62,0-179.38-10.18-180.81-10.34l.32-3.18c2.54.32,249.99,30.06,371.33-12.72l1.11,3.02c-50.89,17.97-124.04,23.22-191.95,23.22Z"/>
            <path class="cls-2" d="M309.98,638.25h-3.18c5.88-269.23-7.47-288.16-9.06-289.43,0,0,.32.16.8.16l-.32-3.18c.32,0,.95,0,1.75.64,3.66,3.34,15.58,34.67,10.02,291.82Z"/>
            <path class="cls-2" d="M319.52,636.66h-3.18c5.88-269.23-7.47-288.16-9.06-289.43,0,0,.32.16.8.16l-.32-3.18c.32,0,.95,0,1.75.64,3.66,3.34,15.58,34.67,10.02,291.82Z"/>
            <path class="cls-2" d="M154.93,533.45c-6.2,0-13.52-1.91-15.27-7.16-2.86-8.59-11.61-107.82-3.66-180.81.32-2.39,2.07-6.2,10.81-6.2,6.2,0,13.99,2.07,18.92,5.09,1.59.95,6.68,3.98,7.16,74.9.32,36.74-.95,80.63-2.86,106.71-.32,5.25-8.11,7.47-15.11,7.47ZM146.82,342.45c-2.23,0-7.32.32-7.63,3.34-7.95,72.52.8,170.96,3.5,179.38,1.11,3.5,7,5.09,12.25,5.09,6.36,0,11.77-2.07,11.93-4.61,4.13-56.93,4.13-173.66-2.86-178.59-4.45-2.7-11.45-4.61-17.18-4.61Z"/>
            <path class="cls-2" d="M154.77,526.45c-4.13,0-9.38-1.59-10.5-6.36-2.07-7.95-8.27-100.51-2.54-168.57.32-3.34,3.02-5.25,7.32-5.25s9.86,1.91,13.36,4.61c7,5.57,5.09,129.13,2.86,168.89-.48,4.45-5.57,6.68-10.5,6.68ZM148.89,348.02c-2.54,0-5.57.64-5.72,3.82-5.72,67.9.48,159.98,2.54,167.93.95,3.82,5.41,5.09,9.06,5.09,4.13,0,8.59-1.75,8.75-4.93,2.7-49.93,3.18-163.32-2.23-167.62-3.34-2.54-8.27-4.29-12.4-4.29Z"/>
            <path class="cls-2" d="M374.86,535.2c-6.84,0-13.84-3.66-13.84-11.77,0-2.54-.16-9.54-.32-19.24-2.54-144.56-.16-157.28,2.86-158.39.32-.16,8.43-3.66,16.7-3.66,3.66,0,7,.8,9.54,2.07,2.07,1.11,6.84,3.82,4.77,87.47-1.11,42.78-3.34,85.4-3.98,91.76-.64,7.79-8.43,11.77-15.74,11.77ZM365.16,348.66c-3.82,7.79-1.91,118.79-1.27,155.53.16,9.7.32,16.86.32,19.24,0,6.36,5.72,8.59,10.65,8.59,5.72,0,12.25-3.02,12.72-8.75.64-6.2,2.86-48.34,3.98-90.65,1.91-75.54-1.91-84.44-3.18-85.56-2.07-1.11-4.77-1.75-7.95-1.75-6.84,0-13.84,2.7-15.27,3.34Z"/>
            <path class="cls-2" d="M153.34,373.94c-5.09,0-9.22-4.13-9.22-9.22s4.13-9.22,9.22-9.22,9.22,4.13,9.22,9.22c0,2.39-.95,4.77-2.7,6.52-1.75,1.75-3.98,2.7-6.52,2.7ZM153.34,358.83c-3.34,0-6.04,2.7-6.04,6.04s2.7,6.04,6.04,6.04c1.59,0,3.02-.64,4.29-1.75,1.11-1.11,1.75-2.7,1.75-4.29,0-3.34-2.7-6.04-6.04-6.04Z"/>
            <path class="cls-2" d="M164.47,397.8h-19.56l4.45-31.81h9.86l5.25,31.81ZM148.41,394.62h12.25l-4.29-25.44h-4.45l-3.5,25.44Z"/>
            <path class="cls-2" d="M375.98,369.17c-5.09,0-9.22-4.13-9.22-9.22s4.13-9.22,9.22-9.22,9.22,4.13,9.22,9.22c0,2.39-.95,4.77-2.7,6.52-1.75,1.75-3.98,2.7-6.52,2.7ZM375.98,354.06c-3.34,0-6.04,2.7-6.04,6.04s2.7,6.04,6.04,6.04c1.59,0,3.02-.64,4.29-1.75,1.11-1.11,1.75-2.7,1.75-4.29,0-3.34-2.7-6.04-6.04-6.04Z"/>
            <path class="cls-2" d="M385.52,393.03h-19.56l4.45-31.81h9.86l5.25,31.81ZM369.46,389.84h12.25l-4.29-25.44h-4.45l-3.5,25.44Z"/>
            <polygon class="cls-2" points="160.97 515.48 145.55 515.48 156.04 512.46 146.98 510.55 156.52 507.53 146.98 506.25 159.22 502.44 143.8 499.57 156.36 497.03 144.59 495.28 157.15 491.62 141.89 489.71 158.27 486.22 145.07 484.15 157.15 481.13 143.32 478.58 156.36 474.61 142.52 473.97 156.04 469.36 143 469.36 157.15 464.75 142.84 463.16 158.11 458.39 144.11 454.89 156.84 452.98 144.91 450.12 155.41 448.53 142.21 446.78 154.93 443.76 143.48 442.8 155.88 439.14 141.73 437.87 156.2 434.53 142.05 433.1 157.15 429.28 143.32 426.9 156.84 422.6 142.84 421.65 156.36 416.88 140.93 416.88 157.63 412.11 143 408.93 156.68 405.91 146.82 404.48 146.98 403.04 165.58 405.59 150.48 408.93 164.31 411.95 152.38 415.29 165.58 415.29 150.48 420.54 165.11 421.65 150 426.42 164.79 428.97 151.27 432.46 165.74 433.74 151.59 437.24 164.47 438.19 152.07 441.85 164.79 442.96 151.11 446.3 166.54 448.37 153.18 450.43 165.11 453.46 152.38 455.21 163.83 458.07 150.48 462.36 164.79 463.95 153.02 467.77 165.9 467.77 150.79 472.7 165.58 473.65 150 478.26 164.79 480.97 153.02 483.83 166.86 485.9 151.43 489.24 164.79 490.83 151.91 494.8 165.58 496.87 152.22 499.57 165.9 501.96 154.29 505.62 163.83 506.89 153.34 510.23 162.72 512.14 156.68 513.89 160.97 513.89 160.97 515.48"/>
            <polygon class="cls-2" points="385.68 525.02 370.89 525.02 370.89 523.43 375.82 523.43 369.62 521.36 378.84 519.13 368.5 515.48 377.89 514.05 366.28 510.07 380.11 507.21 366.75 504.19 380.27 501.96 367.39 497.51 380.91 495.76 365.32 492.1 379.16 489.71 367.39 486.53 382.02 483.51 366.59 478.42 381.07 477.79 366.28 472.54 379.63 472.54 367.71 467.93 381.86 465.86 368.18 461.09 379.95 457.91 367.07 455.84 379.16 452.5 365.8 450.28 381.23 448.05 367.55 444.39 380.27 443.12 367.71 438.98 380.75 437.87 366.44 434.05 381.07 432.46 367.39 428.65 382.18 425.94 367.07 420.7 381.7 419.42 366.59 413.7 380.11 413.7 367.87 409.72 381.7 406.38 366.75 402.73 384.88 399.86 385.04 401.45 374.86 403.04 388.54 406.38 373.75 409.88 390.29 415.29 375.18 415.29 388.7 420.54 374.71 421.65 388.22 426.42 374.39 428.97 389.34 433.26 375.34 434.69 389.65 438.51 375.66 439.94 388.06 443.91 376.45 445.03 389.18 448.53 375.98 450.43 386.47 452.18 374.71 455.36 387.27 457.43 373.59 461.25 388.54 466.5 374.07 468.72 388.06 474.13 375.5 474.13 389.34 478.9 375.18 479.7 388.38 483.83 374.39 486.69 386.47 490.03 373.27 492.26 389.49 496.23 374.39 498.3 386.95 502.44 375.02 504.34 387.59 507.37 372.32 510.39 384.56 514.68 374.86 516.11 384.56 519.45 375.34 521.68 385.68 525.02"/>
          </g>
        </g>
        <path class="cls-2" d="M375.66,674.5c-4.77,0-8.75-3.98-8.75-8.75s3.98-8.75,8.75-8.75,8.75,3.98,8.75,8.75-3.98,8.75-8.75,8.75ZM375.66,658.6c-3.98,0-7.16,3.18-7.16,7.16s3.18,7.16,7.16,7.16,7.16-3.18,7.16-7.16-3.18-7.16-7.16-7.16Z"/>
        <path class="cls-2" d="M340.67,677.84c-3.98,0-7.16-3.18-7.16-7.16s3.18-7.16,7.16-7.16,7.16,3.18,7.16,7.16c.16,3.82-3.18,7.16-7.16,7.16ZM340.67,664.96c-3.18,0-5.57,2.54-5.57,5.57,0,3.18,2.54,5.57,5.57,5.57,3.18,0,5.57-2.54,5.57-5.57.16-3.02-2.39-5.57-5.57-5.57Z"/>
        <path class="cls-2" d="M222.99,676.25c-3.98,0-7.16-3.18-7.16-7.16s3.18-7.16,7.16-7.16,7.16,3.18,7.16,7.16c.16,3.82-3.18,7.16-7.16,7.16ZM222.99,663.37c-3.18,0-5.57,2.54-5.57,5.57,0,3.18,2.54,5.57,5.57,5.57,3.18,0,5.57-2.54,5.57-5.57.16-3.02-2.39-5.57-5.57-5.57Z"/>
        <path class="cls-2" d="M171.31,676.1c-5.25,0-9.54-4.29-9.54-9.54s4.29-9.54,9.54-9.54,9.54,4.29,9.54,9.54-4.29,9.54-9.54,9.54ZM171.31,658.6c-4.45,0-7.95,3.5-7.95,7.95s3.5,7.95,7.95,7.95,7.95-3.5,7.95-7.95-3.5-7.95-7.95-7.95Z"/>
        <path class="cls-2" d="M424.48,231.29c-6.84,0-12.25-5.57-12.25-12.25s5.57-12.25,12.25-12.25,12.25,5.57,12.25,12.25c.16,6.68-5.41,12.25-12.25,12.25ZM424.48,209.83c-5.09,0-9.06,4.13-9.06,9.06s4.13,9.06,9.06,9.06,9.06-4.13,9.06-9.06c.16-4.93-3.98-9.06-9.06-9.06Z"/>
        <path class="cls-2" d="M143,223.34c-6.84,0-12.25-5.57-12.25-12.25s5.57-12.25,12.25-12.25,12.25,5.57,12.25,12.25c.16,6.68-5.41,12.25-12.25,12.25ZM143,201.87c-5.09,0-9.06,4.13-9.06,9.06s4.13,9.06,9.06,9.06,9.06-4.13,9.06-9.06c.16-4.93-3.98-9.06-9.06-9.06Z"/>
        <path class="cls-2" d="M188.8,285.68c-5.72,0-10.34-4.61-10.34-10.34s4.61-10.34,10.34-10.34,10.34,4.61,10.34,10.34-4.61,10.34-10.34,10.34ZM188.8,269.78c-3.02,0-5.57,2.54-5.57,5.57s2.54,5.57,5.57,5.57,5.57-2.54,5.57-5.57-2.54-5.57-5.57-5.57Z"/>
        <path class="cls-2" d="M374.86,290.45c-5.72,0-10.34-4.61-10.34-10.34s4.61-10.34,10.34-10.34,10.34,4.61,10.34,10.34-4.61,10.34-10.34,10.34ZM374.86,274.55c-3.02,0-5.57,2.54-5.57,5.57s2.54,5.57,5.57,5.57,5.57-2.54,5.57-5.57-2.54-5.57-5.57-5.57Z"/>
      </g>
      <path class="cls-2" d="M292.17,629.18c-5.72,0-10.34-4.61-10.34-10.34s4.61-10.34,10.34-10.34,10.34,4.61,10.34,10.34-4.61,10.34-10.34,10.34ZM292.17,613.28c-3.02,0-5.57,2.54-5.57,5.57s2.54,5.57,5.57,5.57,5.57-2.54,5.57-5.57-2.54-5.57-5.57-5.57Z"/>
      <path class="cls-2" d="M530.71,777.08c-5.72,0-10.34-4.61-10.34-10.34s4.61-10.34,10.34-10.34,10.34,4.61,10.34,10.34-4.61,10.34-10.34,10.34ZM530.71,761.18c-3.02,0-5.57,2.54-5.57,5.57s2.54,5.57,5.57,5.57,5.57-2.54,5.57-5.57-2.54-5.57-5.57-5.57Z"/>
      <path class="cls-2" d="M26.59,770.72c-5.72,0-10.34-4.61-10.34-10.34s4.61-10.34,10.34-10.34,10.34,4.61,10.34,10.34-4.61,10.34-10.34,10.34ZM26.59,754.81c-3.02,0-5.57,2.54-5.57,5.57s2.54,5.57,5.57,5.57,5.57-2.54,5.57-5.57-2.54-5.57-5.57-5.57Z"/>
    </g>
  </g>
</svg>