<?xml version="1.0" encoding="UTF-8"?>
<svg id="Ebene_1" data-name="Ebene 1" xmlns="http://www.w3.org/2000/svg" viewBox="0 0 2840.5 1963.66">
  <defs>
    <style>
      .cls-1 {
        fill: #ecbbfc;
      }
    </style>
  </defs>
  <path class="cls-1" d="M2763.79,260.94H935.45c-60.88,0-141.67,15.38-200.37-1.94-46.91-13.84-97.09-50.98-139.54-76.64-74.66-45.14-153.92-94.03-232.57-130.07-50.43-23.12-121.16-21.66-175.32-29.89L62.41,2.87C44.67.19,23.94-4.96,10.59,12.08c-39.69,50.61,43.11,62.79,69.72,67.08,87.66,14.15,187.29,15.26,271.93,43.72,30.28,10.18,57.74,31.89,85.87,47.33,58.63,32.2,116.62,65.54,175.32,97.56,23.08,12.59,63.1,27.06,79.28,49.32,16.6,22.84,22.05,64.65,30.45,92.13l62.02,202.92,209.91,686.82,82.29,269.26c9.11,29.82,16.11,88.31,36.41,110.81,8.53,9.45,25.34,6.26,36.34,6.26h1177.15c14.9,0,42.67,5.75,55.43-4.02,16.87-12.92,22.94-61.17,29.25-81.84l69.18-226.33,263.57-862.42c26.18-85.65,52.9-171.07,76.46-257.55,6.11-22.42,31.4-66.46,12.33-87.21-39.87-43.36-65.52,68.51-69.71,95.01M1264.62,1792.72c-104.3,26.25-61.09,193.62,42.94,168.1,98.36-24.13,55.05-192.77-42.94-168.1M2270.03,1792.72c-102.6,25.87-57.69,197.28,46.52,167.46,97.64-27.94,50.89-192.02-46.52-167.46M1271.77,1831.38c56.26-16.5,78.16,78.96,21.46,93.63-53.4,13.83-74.66-78.03-21.46-93.63M2280.77,1831.2c56.92-13.96,74.11,81.67,17.88,93.78-53.13,11.45-72.05-80.5-17.88-93.78Z"/>
</svg>