<?xml version="1.0" encoding="UTF-8"?>
<svg id="Layer_1" data-name="Layer 1" xmlns="http://www.w3.org/2000/svg" viewBox="0 0 669.25 660.2">
  <defs>
    <style>
      .cls-1 {
        fill: #fff;
        stroke: #000;
        stroke-miterlimit: 10;
        stroke-width: 3px;
      }

      .cls-2 {
        fill: #deefb9;
      }
    </style>
  </defs>
  <path class="cls-2" d="M647.71,323.71c-2.52-4.1-5.05-8.04-6.62-13.09-11.67-35.95-125.99-239.2-160.83-259.38-32.8-18.92-102.49-48.56-103.12-48.72l-1.1-.32-1.1.79c-.16.16-.47.32-.63.47h0v.16c-17.82,11.2-37.69,17.34-59.13,17.34h0c-37.21,0-66.7-17.66-67.01-17.82l-.95-.95-1.1.47c-.32.16-9.78,3.94-26.65,12.46-14.03,7.1-41.47,17.03-73.32,26.65-23.02,6.94-50.46,64.49-59.6,83.41-.95,2.21-2.05,4.1-2.21,4.57-.47.63-43.05,92.4-41.94,104.7.47,5.2-7.1,32.32-13.72,56.13-6.15,21.92-12.46,44.62-14.66,56.92-4.57,25.54-10.25,94.13-13.24,145.54-2.68,44.78,2.21,64.18,7.41,84.83.32,1.58.79,3.15,1.26,4.73,5.05,20.18,16.87,29.64,20.66,32.32.16,10.72,1.26,39.58,9.93,42.89,4.1,1.58,8.36,2.37,12.61,2.37,20.66,0,38.95-17.82,41.63-25.7.95-2.68-.16-4.1-.95-4.57-3-3.31-3.78-26.96-1.1-30.27,4.89-.32,5.2-9.15,5.68-22.07.32-8.83.63-18.92,2.68-24.28,4.89-12.93,9.62-68.75,9.62-78.21,0-4.57-1.89-14.19-4.1-25.23-2.52-12.14-5.2-26.02-5.2-32.95s5.52-19.08,10.41-29.8c4.26-9.3,8.04-17.5,8.36-22.55.32-3.63,1.26-9.46,2.52-16.24,2.21-13.09,4.73-27.91,4.1-35.64-.63-7.41,8.99-21.76,14.82-29.49,1.26,3.15,3,8.04,5.2,13.4,2.68,6.78,6.46,74.11,8.36,117.63l.16,2.21h7.41c13.88,0,47.62-.63,60.08-6.94,4.26-2.21,9.46-3.15,16.08-3.15,11.67,0,24.91,3.47,36.74,6.46l3.15.79c6.78,1.73,17.66,2.68,30.59,2.68,17.98,0,44.47-1.89,59.44-7.57,5.52-2.05,12.14-3,20.5-3,9.93,0,20.03,1.42,28.22,2.68,5.52.79,9.93,1.42,12.93,1.42,2.52,0,7.57.95,13.24,2.05,8.51,1.73,19.24,3.78,27.59,3.78,6.46,0,10.72-1.26,13.24-3.78,1.58-1.73,2.37-3.78,2.21-6.46-.16-3-.63-7.57-1.1-13.56-1.1-11.98-2.52-28.54-3-42.57-.63-21.76,1.73-25.07,2.37-25.54,9.93,1.89,28.38,17.34,47.46,47.62,9.78,15.45,15.29,21.6,18.76,23.81-4.1,4.89-9.93,12.93-10.56,18.61-.32,2.05,0,3.31.32,4.41.63,3.31,1.58,7.88-18.92,47.3-16.71,32.17-20.03,56.45-22.07,70.96-.95,7.25-1.73,12.93-3.63,14.03-8.04,5.05-15.29,26.49-16.08,29.01l-.47,1.58,1.42.95c1.42,1.1,35.64,25.7,50.46,25.7,5.36,0,7.25-3.15,7.88-4.89,4.41-13.25,19.87-35.32,21.29-37.37,1.26-1.26,2.52-2.37,4.26-3.63,6.94-5.83,18.45-15.45,44.15-51.88,44.94-63.86,46.67-112.58,46.67-116.68,7.57-44.94-.16-57.39-7.73-69.54Z"/>
  <g>
    <g>
      <g>
        <path d="M56.58,657.99c-4.41,0-8.67-.79-12.77-2.37-8.83-3.31-9.93-32.17-10.09-42.89-3.94-2.68-15.93-12.14-20.97-32.32-.47-1.58-.79-3.15-1.26-4.73-5.2-20.66-10.09-40.05-7.41-84.83,3.15-51.4,8.83-119.84,13.4-145.54,2.21-12.3,8.51-35,14.82-56.92,6.78-23.81,14.35-50.93,13.88-56.13-1.1-12.3,41.94-104.07,42.42-104.7.16-.32,1.26-2.37,2.21-4.57,9.15-18.92,36.9-76.47,60.23-83.41,32.17-9.46,59.92-19.39,74.11-26.65C242.16,4.41,251.63.63,252.1.47l1.1-.47.95.95c.32.16,30.12,17.82,67.64,17.82h0c22.07,0,42.42-6.31,60.71-17.82l1.1-.79,1.1.32c.63.32,71.27,29.8,104.38,48.72,35,20.66,150.58,223.9,162.41,259.7,1.73,5.2,4.1,8.99,6.78,13.09,7.57,12.14,15.61,24.6,7.73,69.06,0,4.1-1.73,52.98-47.3,116.68-26.02,36.42-37.69,46.04-44.62,51.88-1.73,1.42-3,2.52-4.26,3.63-1.42,2.05-17.19,24.12-21.6,37.37-.63,1.89-2.52,4.89-7.88,4.89-14.98,0-49.67-24.76-51.09-25.7l-1.42-.95.63-1.58c.79-2.37,8.2-23.81,16.24-29.01,1.89-1.26,2.68-6.94,3.63-14.03,2.05-14.51,5.2-38.79,22.23-70.96,20.81-39.42,19.87-43.99,19.08-47.3-.32-1.1-.47-2.52-.32-4.41.63-5.68,6.62-13.56,10.72-18.61-3.47-2.21-9.15-8.36-18.92-23.81-19.24-30.27-38-45.73-47.93-47.62-.47.47-3,3.78-2.37,25.54.47,14.03,1.89,30.43,3,42.57.47,5.83.95,10.56,1.1,13.56.16,2.52-.63,4.73-2.21,6.46-2.52,2.52-6.78,3.78-13.4,3.78-8.36,0-19.24-2.05-27.91-3.78-5.83-1.1-10.88-2.05-13.4-2.05-3,0-7.41-.63-13.09-1.42-8.2-1.26-18.45-2.68-28.54-2.68-8.36,0-15.14.95-20.66,3-15.29,5.52-41.94,7.57-60.23,7.57-13.09,0-24.12-.95-31.06-2.68l-3.15-.79c-11.98-3-25.39-6.46-37.21-6.46-6.62,0-11.98,1.1-16.24,3.15-12.61,6.31-46.67,6.94-60.71,6.94h-7.57l-.16-2.21c-1.89-43.68-5.68-111.01-8.36-117.63-2.21-5.36-3.94-10.25-5.2-13.4-5.99,7.73-15.61,22.07-14.98,29.49.63,7.73-1.89,22.55-4.1,35.64-1.1,6.78-2.21,12.77-2.52,16.24-.47,5.05-4.26,13.09-8.51,22.55-4.89,10.72-10.56,22.86-10.56,29.8s2.84,20.81,5.36,32.95c2.21,11.04,4.26,20.66,4.26,25.23,0,9.46-4.73,65.28-9.78,78.21-2.05,5.36-2.37,15.45-2.68,24.28-.47,13.09-.79,21.76-5.83,22.07-2.68,3.15-1.89,26.81,1.1,30.27.63.47,1.73,1.89.95,4.57-2.52,7.88-21.13,25.7-41.94,25.7ZM252.73,5.99c-2.84,1.26-11.83,4.89-25.54,11.67-20.81,10.41-59.29,22.23-74.9,26.81-14.19,4.26-33.43,31.38-57.24,80.89-1.73,3.47-2.21,4.57-2.52,5.05-3,4.89-42.42,92.4-41.63,101.7.47,5.68-4.89,25.7-14.03,57.87-6.15,21.76-12.46,44.31-14.66,56.45-4.57,25.39-10.25,93.66-13.4,144.91-2.68,43.99,2.05,62.28,7.25,83.41.47,1.58.79,3.15,1.26,4.73,5.36,21.6,19.71,29.96,19.87,30.12l1.26.63v1.42c.16,17.98,2.84,38.16,7.1,39.89,3.63,1.26,7.25,2.05,11.04,2.05,19.71,0,36.42-18.13,37.53-22.39-4.1-5.05-4.89-26.65-2.52-33.59,1.1-3.31,2.84-4.26,4.26-4.41,1.26-1.89,1.58-10.88,1.89-17.66.32-9.62.63-19.71,3-25.86,4.73-12.3,9.46-67.49,9.46-76.47,0-4.1-2.05-13.88-4.1-24.28-2.68-13.09-5.36-26.49-5.36-33.9,0-8.04,5.52-20.03,11.04-31.85,3.94-8.51,7.73-16.71,8.04-20.97.32-3.78,1.42-9.78,2.52-16.71,2.05-12.14,4.73-27.28,4.1-34.53-.95-12.14,16.71-33.74,18.76-36.11l2.68-3.15,1.42,3.78s2.84,7.73,6.62,17.19c3.63,9.15,7.88,98.71,8.67,117h3c10.72,0,46.67-.47,58.66-6.46,5.05-2.52,11.04-3.78,18.29-3.78,12.3,0,26.17,3.47,38.32,6.62l3.15.79c6.46,1.58,17.19,2.52,29.8,2.52,23.18,0,46.67-2.84,58.5-7.25,6.15-2.21,13.4-3.31,22.23-3.31,10.41,0,20.81,1.58,29.17,2.68,5.2.79,9.62,1.42,12.46,1.42,3,0,8.04.95,14.35,2.21,8.51,1.58,19.08,3.63,26.96,3.63,6.31,0,8.83-1.26,9.93-2.37.47-.47.95-1.26.95-2.84-.16-3-.63-7.73-1.1-13.4-3.15-34.06-5.36-65.12.63-71.59,1.26-1.26,2.52-1.58,3.47-1.58h.79c10.25,1.89,29.8,15.93,51.25,49.83,11.83,18.61,16.71,22.07,18.13,22.71l.16-.16,5.99-6.31-1.89,8.51c-.16.79-.79,1.73-1.73,2.37-5.36,5.99-11.04,13.88-11.67,18.45-.16,1.26,0,1.89.16,2.84.95,4.73,2.05,9.62-19.55,50.46-16.56,31.38-19.87,55.19-21.76,69.38-1.26,9.46-2.05,15.14-5.83,17.5-5.2,3.31-11.2,17.66-13.72,24.76,10.72,7.57,36.27,23.81,46.99,23.81,2.84,0,3.31-1.1,3.47-1.73,4.89-14.51,21.6-37.84,22.23-38.79l.32-.32c1.42-1.42,3-2.68,4.73-4.1,6.78-5.68,18.13-14.98,43.83-50.93,45.57-63.86,46.36-113.69,46.36-114.16v-.47c7.57-42.73.16-54.4-6.94-65.91-2.68-4.26-5.36-8.51-7.25-14.19-12.46-38-128.19-238.25-160.36-256.54-30.59-17.5-93.5-43.83-102.81-47.78-18.76,11.67-39.58,17.98-62.13,17.98h0c-35.79-.16-63.7-14.98-69.38-18.13Z"/>
        <path d="M319.27,71.59c-57.55,0-71.59-66.22-71.74-66.86l4.57-.95c.47,2.68,13.72,64.33,68.59,63.07,48.25-1.1,56.76-45.73,59.6-60.39.63-3,.79-4.1,1.26-4.73l4.1,2.37s0-.16.16-.16c-.16.32-.47,1.89-.79,3.31-1.42,7.41-4.41,22.86-13.56,36.9-11.35,17.66-28.38,26.81-50.61,27.28-.47.16-.95.16-1.58.16Z"/>
        <path d="M317.85,89.09c-35.16,0-56.92-19.39-69.06-36.42-13.88-19.39-18.61-38.95-18.76-39.74l4.57-1.1c0,.16,4.73,19.71,18.13,38.16,17.82,24.6,41.94,36.11,71.59,34.06,29.64-2.05,50.93-15.14,63.07-38.79,9.15-17.82,9.62-35.32,9.62-35.64h4.73c0,.79-1.89,73.79-77.1,79-2.37.32-4.57.47-6.78.47Z"/>
        <path d="M491.93,320.88c-2.05-2.05-7.25-18.13-13.72-42.73l4.57-1.26c9.46,35.95,12.46,40.68,12.61,40.84l-1.26.95-2.21,2.21Z"/>
        <path d="M149.13,276.88l-4.57-1.26c0-.16,3.15-11.67,5.05-37.69l4.73.32c-2.05,26.65-5.2,38.16-5.2,38.63Z"/>
        <path d="M48.06,614.63c-6.94,0-11.83-.79-12.3-.79l.79-4.73c.32,0,34.85,5.2,55.98-13.4l3.15,3.63c-14.98,12.93-35,15.29-47.62,15.29Z"/>
        <path d="M559.26,576.95c-27.28-2.84-52.03-26.02-53.14-26.96l3.31-3.47c.32.16,24.76,23.02,50.3,25.7l-.47,4.73Z"/>
      </g>
      <path d="M555.31,384.74l-2.21-2.21c15.93-15.93,4.89-75.84,4.89-76.32l3.15-.63c.32,2.52,11.2,61.97-5.83,79.15Z"/>
      <path d="M582.59,380.95l-.63-3.15c.79-.16,19.39-3.78,16.87-18.29l3.15-.47c2.52,14.03-11.51,20.5-19.39,21.92Z"/>
      <path d="M122.64,356.51c-.79-.16-19.39-3.94-21.44-32.48-.95-13.88,2.84-28.38,6.15-41.15,3.31-12.77,6.46-24.76,3.94-33.11l3-.95c2.84,9.15-.32,20.97-3.94,34.85-3.31,12.46-6.94,26.65-5.99,40.05,1.73,26.17,18.61,29.49,18.76,29.64l-.47,3.15Z"/>
      <path d="M101.99,416.11c-1.1-.63-25.54-16.08-28.38-46.52l3.15-.32c2.68,28.86,26.65,43.99,26.96,44.15l-1.73,2.68Z"/>
    </g>
    <g>
      <path class="cls-1" d="M320.06,192.21c-8.67,0-17.19,3.63-19.87,8.67-2.37,4.41-1.26,11.67,0,19.39,1.1,6.94,2.21,14.03.16,17.03-2.52,3.78-12.14,6.94-21.13,6.94-6.46,0-11.2-1.58-12.77-4.41-4.73-8.36-3.63-36.74-3.63-37.05v-.95l-.95-.47c-.47-.16-9.93-4.89-19.24-4.89-8.2,0-14.03,3.78-16.71,10.88-10.25,27.12-.79,87.2,10.25,113.06,3.63,8.36,9.3,12.61,16.87,12.61,12.77,0,26.33-12.14,26.81-12.61l.63-.63-.16-.79c-1.1-6.46-3.47-24.44-.32-29.17,1.89-2.84,8.04-4.73,14.51-4.73,4.42,0,8.51.95,11.04,2.68,5.68,3.78,8.67,25.07,9.46,32.95v.79l.63.47c.47.32,10.72,6.78,20.18,6.78,5.36,0,9.46-2.05,12.3-5.99,9.46-13.4-.63-108.48-10.09-121.89-3.47-5.68-9.93-8.67-17.98-8.67Z"/>
      <path class="cls-1" d="M411.98,312.68c-.32-11.04-4.26-108.48-20.97-118.1-5.2-3-10.09-4.41-14.66-4.41-8.83,0-14.35,5.99-14.35,11.51.32,3.78,6.46,94.13,17.98,111.95,3.63,5.68,8.36,8.51,13.88,8.51,9.15,0,17.19-8.04,17.66-8.36l.47-.47v-.63Z"/>
      <path class="cls-1" d="M363.42,174.08h0c3.47,0,7.41-.95,11.83-2.68,12.77-5.2,14.35-11.83,13.4-16.56-1.42-7.1-9.62-13.09-14.03-13.09-14.19,0-22.55,2.37-25.7,7.1-2.37,3.78-2.84,11.2.47,17.19,2.84,5.2,7.73,8.04,14.03,8.04Z"/>
    </g>
  </g>
</svg>