<?xml version="1.0" encoding="UTF-8"?>
<svg id="Layer_1" data-name="Layer 1" xmlns="http://www.w3.org/2000/svg" viewBox="0 0 687.96 894.7">
  <defs>
    <style>
      .cls-1 {
        fill: #fce0e0;
      }
    </style>
  </defs>
  <path class="cls-1" d="M662.84,733.12c-5.52-47.8-12.46-107.45-19.61-171.18-11.03-98.66-33.91-244.51-50.86-350.93-10.83-68.84-19.41-123.38-20.22-135.63-1.63-33.09-89.06-61.08-92.74-62.3l-1.02,2.86-1.43-2.66c-.41.2-35.54,18.38-90.29,27.17-50.45,8.17-128.69,10.21-213.87-27.37l-1.43-.61-79.87,50.05c-.41,0-.82.2-1.23.41-13.48,6.13-30.23,118.88-47.19,317.64-11.64,136.25-14.09,188.95-16.14,227.35-2.66,52.91-3.68,77.21-26.76,262.69-.82,6.54,1.02,12.05,5.52,16.14,6.74,5.92,18.79,7.97,31.46,7.97,21.45,0,44.33-5.52,45.76-5.92l1.84-.61.41-2.04c1.43-6.33,26.96-127.87,36.77-206.52,8.17,138.7,21.86,177.51,40.85,192.01,5.11,3.88,9.19,5.52,12.87,5.52,6.13,0,10.62-4.29,15.52-8.78,6.33-5.92,13.28-12.66,26.76-14.09,17.98-1.84,24.1,1.63,31.25,5.92,4.7,2.86,10.01,5.92,19.2,7.35,14.09,2.25,25.33-5.92,35.34-13.07,6.33-4.49,12.46-8.99,18.59-10.01,6.74-1.43,12.46,1.63,19.61,5.31,8.38,4.29,18.79,9.6,34.11,9.6s26.35-6.95,36.16-13.07c9.4-5.72,17.57-10.83,27.78-10.01,10.62.82,18.18,7.15,26.35,14.09,8.58,7.15,17.36,14.71,29.82,15.52,2.86.2,5.92-1.02,8.78-3.88,20.22-18.79,43.71-111.94,50.25-158.92,12.05,74.35,42.08,183.84,43.71,189.56l.61,2.04h4.9c12.26,0,57.6-.82,69.66-12.87,2.25-2.25,3.47-4.9,3.47-7.56.2-11.85-5.72-63.32-14.71-141.15Z"/>
  <g>
    <g>
      <path d="M47.58,882.04c-12.66,0-24.92-1.84-31.46-7.97-4.49-4.09-6.33-9.4-5.52-16.14,23.08-185.48,24.31-209.58,26.76-262.69,1.84-38.4,4.49-90.9,16.14-227.35C70.46,169.14,87.21,56.38,100.69,50.25c.41-.2.82-.2,1.23-.41L181.78,0l1.43.61c85.38,37.59,163.42,35.54,213.87,27.37C451.83,19,486.96.82,487.37.82l2.86,5.52c-.41.2-36.16,18.59-91.92,27.78-51.07,8.38-129.92,10.42-216.12-27.17l-79.67,49.64h0c-4.09,5.92-20.22,46.16-43.1,311.72-11.64,136.25-14.09,188.74-15.93,226.94-2.66,53.11-3.68,77.42-26.96,263.1-.61,4.49.61,8.17,3.47,10.83,12.46,11.23,53.11,4.7,70.06,1.02,4.29-20.22,40.04-193.03,40.04-250.23h6.13c0,61.28-38.81,245.53-40.45,253.29l-.41,2.04-1.84.61c-1.63.61-24.72,6.13-45.96,6.13Z"/>
      <path d="M186.07,864.67c-3.68,0-7.76-1.43-12.87-5.52-20.84-16.14-35.54-61.49-43.31-238.18-7.35-166.48,7.35-452.87,7.35-455.72l6.13.41c-.2,2.86-14.71,288.84-7.35,455.11,7.76,173.63,21.86,218.98,40.85,233.68,9.6,7.35,12.87,4.09,20.43-3.06,6.33-5.92,14.91-14.09,30.23-15.73,20.02-2.04,27.58,2.45,34.93,6.74,4.7,2.66,9.19,5.31,16.95,6.54,11.64,1.84,21.45-5.11,30.84-12.05,6.95-4.9,13.48-9.6,20.84-11.03,8.78-1.84,16.14,1.84,23.7,5.92,8.17,4.29,17.36,8.99,31.46,8.99s23.49-6.13,33.09-12.05c9.4-5.92,19.2-11.85,31.46-11.03,12.46.82,21.24,8.38,29.82,15.52,8.17,6.95,15.73,13.28,26.35,14.09,1.43,0,3.06-1.23,4.29-2.25,21.24-19.81,50.25-141.35,50.25-174.65,0-10.21-1.63-52.5-4.09-111.12-5.31-135.02-14.3-361.15-10.83-413.65l6.13.41c-3.47,52.29,5.52,278.01,10.83,413.03,2.25,58.63,4.09,101.11,4.09,111.33,0,30.84-28.39,156.88-52.29,179.14-2.86,2.66-5.92,4.09-8.78,3.88-12.46-.82-21.24-8.38-29.82-15.52-8.17-6.95-15.73-13.28-26.35-14.09-10.42-.82-18.38,4.29-27.78,10.01-9.8,6.13-21.04,13.07-36.16,13.07s-25.94-5.31-34.11-9.6c-7.15-3.68-12.87-6.74-19.61-5.31-5.92,1.23-12.05,5.52-18.59,10.01-10.01,7.15-21.24,15.12-35.34,13.07-8.99-1.43-14.5-4.49-19.2-7.35-7.15-4.09-13.28-7.76-31.25-5.92-13.28,1.43-20.43,8.17-26.76,14.09-4.7,4.49-9.4,8.78-15.52,8.78Z"/>
      <path d="M614.84,882.24h-4.9l-.61-2.04c-2.04-7.15-48.82-178.12-48.82-237.36h6.13c0,55.15,42.28,212.44,48,232.87h0c17.16,0,56.17-1.84,65.57-11.03,1.02-1.02,1.63-2.04,1.63-3.27,0-11.03-6.33-65.16-15.12-140.13-5.52-48-12.46-107.45-19.61-171.18-11.03-98.46-33.91-244.31-50.86-350.73-11.44-71.7-19.61-123.58-20.22-136.25-1.23-23.9-64.34-49.02-88.65-56.58l1.84-5.92c3.68,1.23,91.1,29.01,92.94,62.1.61,12.26,9.19,66.8,20.22,135.63,16.75,106.42,39.83,252.27,50.86,350.93,7.15,63.73,14.09,123.38,19.61,171.18,8.99,78.03,15.12,129.51,15.12,140.74,0,2.86-1.23,5.31-3.47,7.56-12.05,12.46-57.4,13.48-69.66,13.48Z"/>
      <path d="M341.32,148.91h-4.49c-71.29-1.84-110.51-41.06-130.73-73.54-21.86-35.13-26.96-69.45-27.17-70.88l6.13-.82c0,.41,5.11,34.52,26.56,68.63,28.39,45.55,70.68,69.25,125.63,70.47,54.74,1.43,96.42-21.45,123.79-68.02,20.43-34.93,24.92-70.88,24.92-71.09l6.13.61c-.2,1.43-4.49,37.38-25.53,73.33-19.61,32.68-56.79,71.29-125.22,71.29Z"/>
      <path d="M341.93,167.3h-4.9c-78.64-1.84-121.95-43.31-144.42-78.03-24.1-37.18-29.82-73.54-30.03-75.17l6.13-.82c0,.41,5.72,36.77,29.21,72.92,31.46,48.41,78.24,73.54,139.11,74.97,60.67,1.43,106.83-23.29,137.06-73.54,22.67-37.79,27.37-76.4,27.58-76.81l6.13.61c-.2,1.63-4.9,40.24-28.19,79.05-21.24,35.34-62.3,76.81-137.68,76.81Z"/>
    </g>
    <polygon points="466.54 417.94 392.18 334.39 307.21 417.73 221.62 349.3 133.78 416.1 130.1 411.19 221.62 341.54 306.8 409.56 392.59 325.4 466.74 409.15 549.88 328.67 554.17 332.96 466.54 417.94"/>
    <polygon points="312.31 476.36 221.62 417.32 132.56 475.13 129.29 470.02 221.62 409.97 311.7 468.8 396.27 394.44 468.99 465.73 549.88 382.6 554.17 386.89 469.19 474.52 396.06 402.82 312.31 476.36"/>
  </g>
</svg>