<?xml version="1.0" encoding="UTF-8"?>
<svg id="Layer_1" data-name="Layer 1" xmlns="http://www.w3.org/2000/svg" viewBox="0 0 477.2 864.3">
  <defs>
    <style>
      .cls-1 {
        fill: #fff;
      }

      .cls-2 {
        fill: #a8a8a8;
      }
    </style>
  </defs>
  <path d="M399.2.6c.8-.3,1.7-.4,2.7-.4M283.5.3l.6-.3.6.2"/>
  <path class="cls-1" d="M470.7,864.3c-3.6,0-6.5-2.9-6.5-6.5s2.9-6.5,6.5-6.5,6.5,2.9,6.5,6.5-2.9,6.5-6.5,6.5ZM470.7,854.3c-1.9,0-3.5,1.6-3.5,3.5s1.6,3.5,3.5,3.5,3.5-1.6,3.5-3.5-1.6-3.5-3.5-3.5Z"/>
  <g>
    <path class="cls-2" d="M4.1,557.2c-1.1-10.3,7.3-14,8.8-14.6,2.8-1.9,8.7-4.2,16.1-7.1,13.1-5.1,31-12.2,36.9-19.5,1-1.2,1.4-2.2,2.1-3.4,1.1-2.3,2.6-5.4,8.4-12.2,4.3-5,9.4-7.7,15.8-11.1,7.1-3.7,15.9-8.4,27.2-18.3,20.8-18.2,39.5-79.1,39.6-79.7.1-.3,1.9-6.1,7.2-10.5,1.3-3.8,5.3-15.1,9.4-16.7,4.3-1.7,14.9,7.7,18.3,10.9,5.9-.9,12.3-2.2,19.1-4.1h0c21.9-6.2,41.2-15.8,41.4-15.8l7.5-3.1c1.9-.7,3.2-.3,3.9.3,2.7,1.9,3,7.4,3.4,13.2.2,3.7.5,8.4,1.6,9.6,6.6,7.5,5.7,12.5,5.1,15.5-.3,1.8-.3,2,.2,2.3,5.8,3.8,5.8,8,5.8,11.1,0,1.7,0,2.8.7,3.5,1.8,1.8,7.3,15.4,15.3,35.9,3.9,9.9,8.3,21.2,9.2,22.4,2.2,3,5.9,11.3,7.1,14,1.5,3.4,7.1,21.6-2.7,26.8-8.7,4.7-110.9,35.4-115.1,36.6-.3.1-27.7,9.4-62.7,19.3-20.5,5.8-39.6,10.7-56.7,14.6-45.6,10.2-65.8.5-67.7-1.7l-.2-.2c-.1-.5-3.8-7.7-5-18Z"/>
    <g>
      <g>
        <path d="M73.1,573.3c-45.6,10.2-65.8.5-67.7-1.7l-.2-.2c-.2-.3-3.9-7.6-5.1-17.9-1.1-10.3,7.3-14,8.8-14.6,2.8-1.9,8.7-4.2,16.1-7.1,13.1-5.1,31-12.2,36.9-19.5,1-1.2,1.4-2.2,2.1-3.4,1.1-2.3,2.6-5.5,8.4-12.2,4.3-5,9.4-7.7,15.8-11.1,7.1-3.7,15.9-8.4,27.2-18.3,20.8-18.2,39.5-79.1,39.6-79.7.1-.5,3.5-11.2,14.7-14.4,1.9-.6,4-.8,6.2-.8,9.1-.1,20.3-1.5,33.1-5.5h0c21.9-6,41.3-15.6,41.5-15.7l7.5-3.1c1.9-.7,3.2-.2,3.9.3,2.7,1.9,3,7.4,3.4,13.2.2,3.7.5,8.4,1.6,9.6,6.6,7.5,5.7,12.5,5.1,15.5-.3,1.8-.3,2,.2,2.3,5.8,3.8,5.8,8,5.8,11.1,0,1.7,0,2.8.7,3.5,1.8,1.8,7.3,15.4,15.3,35.9,3.9,9.9,8.4,21.2,9.2,22.4,2.2,3,5.9,11.3,7.1,14,1.5,3.4,7.1,21.6-2.7,26.8-8.7,4.7-110.8,35.4-115.1,36.6-.3.1-27.7,9.4-62.7,19.3-20.6,5.9-39.7,10.8-56.7,14.7ZM259,350.8l-7.4,3c-1.1.5-20.3,9.8-41.9,15.9h0c-13,3.7-24.5,5.5-33.9,5.5-1.9,0-3.8.1-5.5.6-9.7,2.7-12.7,12.4-12.8,12.5-.8,2.5-19.1,62.2-40.5,81-11.5,10.1-20.5,14.8-27.7,18.6-6.1,3.2-11,5.8-14.9,10.4-5.5,6.5-6.9,9.3-8,11.6-.6,1.3-1.2,2.5-2.4,4-6.4,7.9-23.9,14.8-38.1,20.3-7.1,2.8-13.2,5.2-15.7,6.9l-.2.1-.2.1c-.3.1-8.1,2.8-7.1,11.7s4.1,15.5,4.7,16.7c2.1,1.8,22.6,10.2,64.8.7,17-3.8,36.1-8.7,56.5-14.5,34.9-9.9,62.2-19.2,62.6-19.3,1.1-.3,106.2-31.9,114.7-36.4,7.6-4.1,2.4-21,1.4-23.2-3.2-7.1-5.4-11.6-6.8-13.5-1-1.3-4.1-9.2-9.5-23-5.2-13.3-13.1-33.3-14.7-35-1.6-1.6-1.6-3.6-1.5-5.5,0-2.8,0-5.7-4.5-8.7-2.1-1.4-1.7-3.4-1.4-5.2.5-2.8,1.2-6.7-4.5-13.1-1.7-2-2-6.3-2.3-11.3-.3-4.2-.6-10-2.2-11.1-.2-.1-.4-.2-1-.1.2.1.1.2,0,.3Z"/>
        <path d="M152.3,522.3c2.7-.8,5.3-1.5,7.8-2.3,89.6-26.3,145.3-49.7,145.8-49.9l-1.1-2.6c-.6.2-56.1,23.5-145.5,49.8-61.8,18.2-139,33.8-156,27.3l-1,2.6c18.6,7.1,96.2-9.7,150-24.9Z"/>
        <path d="M146.4,518.2c3.8-1.1,7.6-2.2,11.3-3.3,89.6-26.3,145.2-49.7,145.8-49.9l-.7-1.7c-.6.2-56.1,23.5-145.6,49.8-62.7,18.4-133.8,34.1-151,27.6l-.7,1.8c16.7,6.2,80.9-7.3,140.9-24.3Z"/>
        <path d="M60.5,538.1c-.7-8.2,6.3-29.7,6.4-29.9l-1.8-.6c-.3.9-7.2,22.1-6.4,30.6l1.8-.1Z"/>
        <path d="M189.3,373.1l1.3-1.4c-2.4-2.2-14.3-13.2-19-11.4-4.6,1.8-9.3,16.2-9.8,17.8l1.8.6c1.8-5.8,5.8-15.5,8.7-16.6h.1c2.7-.8,11.4,5.9,16.9,11Z"/>
        <path d="M49.1,533c3.7-1.1,7.7-2.4,11.9-4.2l-.7-1.7c-22.5,9.6-39.8,7.2-40,7.1l-.3,1.9c.6.1,12.3,1.7,29.1-3.1Z"/>
        <path d="M130.5,521.8l1.7-.8c-.1-.1-6.1-12.3-7-15.6-.1-.4-.3-.9-.5-1.4-1.2-3.3-3-8.2,7.6-17.5,12.2-10.7,28.7-34,32.7-46.3.4-1.3.9-3.1,1.5-5.2,4-15.3,10.7-48.2,11.5-56.8.5-5.5.1-6.5-.9-6.8-.8-.2-1.5.4-2.1,1.8l1.3.6c0,.7,0,2-.2,4.2-.8,8.5-7.4,41.2-11.5,56.5-.5,2.1-1,3.8-1.5,5.1-3.5,10.9-19,34-32.1,45.4-11.6,10.1-9.5,15.8-8.2,19.6.2.4.3.8.4,1.2,1.1,3.6,7,15.5,7.3,16Z"/>
        <path d="M200.4,427.7c8.5-2.4,18-5.2,28-8.2,17.1-5,34.7-10.2,49.5-14.1l-.5-1.8c-14.8,3.9-32.4,9.1-49.5,14.1-28.6,8.4-55.6,16.3-62.3,16l-.1,1.9c4.7.3,17.8-3,34.9-7.9Z"/>
        <path d="M250.8,396.5c11-3.1,18.9-5.8,20.3-7.4l-1.4-1.2c-3.3,3.8-61.4,17.9-99.7,26.5l.4,1.8c6.9-1.6,53-11.9,80.4-19.7Z"/>
        <path d="M239.3,381c14.4-4.1,25.7-7.9,26.8-10.2l-1.7-.8c-2,4-56.6,17.7-90.6,25.4l.4,1.8c9.3-2.1,41.4-9.5,65.1-16.2Z"/>
        <path d="M147.7,506c4.2-1.2,8.6-3.4,12.6-7.2,15.9-14.8,21.7-22.1,30.7-33.9,7.2-9.4,12.5-9.8,16.3-10.1.8-.1,1.6-.1,2.3-.2.8-.1,2.8-.2,5.6-.3,10.7-.2,32.9-.7,53.3-8.2,2.1-.8,3.1-9.3,3.6-16.4l.1-1.3-1.3.3c-.3.1-28.2,7.1-47.5,7.3l-15,1.2c-1.4,0-21.1-.4-29,13.7-5.9,10.6-15.1,21.5-27.5,32.5l-.1.1c-.4.5-10.8,12.6-23.3,5.9l-.9,1.7c13.4,7.2,24.7-5.3,25.6-6.3,12.5-11.1,21.9-22.2,27.9-33,7.4-13.3,27.1-12.7,27.3-12.7h.1l15-1.2c17.1-.2,40.9-5.7,46.6-7-.5,6.1-1.5,12.6-2.4,13.5-20,7.3-42,7.8-52.6,8-3,.1-5,.1-5.9.3-.6.1-1.4.2-2.1.2-4.2.3-10,.7-17.7,10.8-8.9,11.7-14.7,19-30.5,33.6-15.3,14.2-34.9,5-35.1,4.9l-.8,1.7c.3.2,12,5.7,24.7,2.1Z"/>
      </g>
      <path d="M166.2,400.3c1.3-.4,2.3-1,2.8-1.9.8-1.4.9-2.9.3-4.3-1.3-2.8-5.9-5.1-13.1-6.4l-.3,1.8c8.8,1.6,11.1,4,11.7,5.3.4.8.3,1.7-.2,2.6-1.2,2.2-9.1,1.4-14.3.2l-.4,1.8c1.7.5,9.2,2.1,13.5.9Z"/>
      <path d="M160.4,419.9c.9-.3,1.7-.7,2.2-1.4,1-1.3,1.2-2.8.8-4.2-1-3-5.2-5.7-12.2-7.9l-.6,1.8c8.5,2.6,10.6,5.3,11,6.7.3.9.1,1.7-.5,2.5-1.5,2-9.2.3-14.3-1.5l-.6,1.8c1.8.7,9.9,3.5,14.2,2.2Z"/>
      <path d="M153.2,437.7c.9-.3,1.7-.7,2.2-1.4,1-1.3,1.2-2.8.8-4.2-1-3-5.2-5.7-12.2-7.9l-.6,1.8c8.5,2.6,10.6,5.3,11,6.7.3.9.1,1.7-.5,2.5-1.5,2-9.2.3-14.3-1.5l-.6,1.8c1.8.7,9.9,3.4,14.2,2.2Z"/>
      <path d="M143.9,455.9c.6-.2,1.1-.4,1.5-.8,1.2-1.2,1.7-2.6,1.4-4.1-.5-3.1-4.2-6.5-10.8-9.8l-.8,1.7c8,4,9.6,7,9.8,8.4.1.9-.2,1.7-.9,2.4-1.8,1.7-9.2-1.2-13.8-3.8l-.9,1.6c1.8,1.1,10.2,5.6,14.5,4.4Z"/>
      <path d="M128.5,476.8c.3-.1.5-.2.7-.3,1.4-.9,2.2-2.1,2.4-3.6.3-3.1-2.6-7.3-8.2-12l-1.2,1.4c6.8,5.8,7.6,9,7.5,10.5-.1.9-.5,1.6-1.5,2.1-2.1,1.3-8.6-3.3-12.5-7l-1.3,1.4c1.7,1.5,9.7,8.7,14.1,7.5Z"/>
      <path d="M111,491.6c.1,0,.3-.1.4-.2,1.5-.7,2.5-1.8,2.7-3.3.6-3.1-1.8-7.5-6.8-12.9l-1.4,1.3c6.1,6.5,6.6,9.8,6.3,11.2-.2.9-.7,1.5-1.7,2-2.2,1-8.2-4.2-11.7-8.3l-1.4,1.2c1.6,1.8,9.2,10.2,13.6,9Z"/>
      <path d="M88.8,505.7c.1,0,.3-.1.4-.2,1.5-.7,2.5-1.8,2.7-3.3.6-3.1-1.8-7.5-6.8-12.9l-1.4,1.3c6.1,6.5,6.6,9.8,6.3,11.2-.2.9-.7,1.5-1.7,2-2.2,1-8.2-4.2-11.7-8.3l-1.4,1.2c1.6,1.9,9.2,10.3,13.6,9Z"/>
    </g>
  </g>
</svg>