<?xml version="1.0" encoding="UTF-8"?>
<svg id="Layer_1" data-name="Layer 1" xmlns="http://www.w3.org/2000/svg" viewBox="0 0 721.06 864.3">
  <defs>
    <style>
      .cls-1 {
        fill: #fff;
      }

      .cls-2 {
        fill: #a8a8a8;
      }
    </style>
  </defs>
  <path d="M591,.6c.8-.3,1.7-.4,2.7-.4M475.3.3l.6-.3.6.2"/>
  <path class="cls-1" d="M662.5,864.3c-3.6,0-6.5-2.9-6.5-6.5s2.9-6.5,6.5-6.5,6.5,2.9,6.5,6.5-2.9,6.5-6.5,6.5ZM662.5,854.3c-1.9,0-3.5,1.6-3.5,3.5s1.6,3.5,3.5,3.5,3.5-1.6,3.5-3.5-1.6-3.5-3.5-3.5Z"/>
  <g>
    <path class="cls-2" d="M109.02,167.62c-.45,8.05-1.14,18.29-3.64,20.9-15.01,16.33-12.96,27.21-11.6,33.74.68,3.92.68,4.35-.45,5.01-13.19,8.27-13.19,17.41-13.19,24.16,0,3.7,0,6.1-1.59,7.62-4.09,3.92-16.6,33.52-34.79,78.15-8.87,21.55-18.87,46.15-20.92,48.76-5,6.53-13.41,24.6-16.14,30.48-3.41,7.4-16.14,47.02,6.14,58.34,19.78,10.23,252.14,77.06,261.69,79.67.68.22,62.98,20.46,142.55,42.01,46.61,12.63,90.03,23.29,128.91,31.78,103.67,22.2,149.6,1.09,153.92-3.7l.45-.44c.23-1.09,8.64-16.76,11.37-39.18,2.5-22.42-16.6-30.48-20.01-31.78-6.37-4.14-19.78-9.14-36.6-15.46-29.78-11.1-70.48-26.56-83.89-42.45-2.27-2.61-3.18-4.79-4.77-7.4-2.5-5.01-5.91-11.75-19.1-26.56-9.78-10.88-21.37-16.76-35.92-24.16-16.14-8.05-36.15-18.29-61.84-39.84-47.29-39.62-89.81-172.19-90.03-173.49-.23-.65-4.32-13.28-16.37-22.86-2.96-8.27-12.05-32.87-21.37-36.35-9.78-3.7-33.88,16.76-41.61,23.73-13.41-1.96-27.96-4.79-43.42-8.92h0c-49.79-13.5-93.67-34.39-94.12-34.39"/>
    <g>
      <g>
        <path d="M245.89,170.89h0c29.1,7.84,54.34,11.75,75.25,11.97,5,0,9.78.65,14.1,1.74,25.46,6.97,32.97,30.48,33.42,31.35.45,1.31,42.97,133.87,90.03,173.49,25.69,21.55,45.7,31.56,61.84,39.84,14.55,7.4,26.15,13.06,35.92,24.16,13.19,14.8,16.6,21.55,19.1,26.56,1.36,2.83,2.5,4.79,4.77,7.4,13.41,15.89,54.11,31.13,83.89,42.45,16.82,6.31,30.24,11.32,36.6,15.46,3.18,1.31,22.51,9.36,20.01,31.78-2.73,22.42-11.14,38.31-11.6,38.97l-.45.44c-4.09,4.79-50.25,26.12-153.92,3.7-38.65-8.71-82.07-19.37-128.91-32-79.57-21.55-141.87-41.8-142.55-42.01-9.78-2.83-241.91-69.66-261.69-79.67-22.28-11.32-9.55-51.16-6.14-58.34,2.73-5.88,11.14-23.95,16.14-30.48,1.82-2.39,12.05-26.99,20.92-48.76,18.42-44.62,30.69-74.23,34.79-78.15,1.59-1.52,1.59-3.7,1.59-7.62,0-6.75-.23-15.67,13.19-24.16.91-.65,1.14-1.09.45-5.01-1.14-6.53-3.41-17.63,11.6-33.74,2.5-2.61,3.18-12.84,3.64-20.9M124.26,159.57c-.68,10.88-1.36,20.46-5.23,24.6-12.96,13.93-11.37,22.42-10.23,28.52.68,3.92,1.59,8.27-3.18,11.32-10.23,6.53-10.23,12.84-10.23,18.94,0,4.14,0,8.49-3.41,11.97-3.64,3.7-21.6,47.24-33.42,76.19-12.28,30.04-19.55,47.24-21.6,50.07-3.18,3.92-8.41,13.93-15.46,29.39-2.27,5.01-14.1,41.8,3.18,50.5,19.33,9.8,258.27,78.58,260.78,79.24.68.22,62.98,20.46,142.32,42.01,46.61,12.63,89.81,23.29,128.46,31.56,95.94,20.68,142.55,2.39,147.33-1.52,1.36-2.61,8.41-16.98,10.69-36.35,2.27-19.37-15.46-25.25-16.14-25.47l-.45-.22-.45-.22c-5.68-3.7-19.55-8.92-35.69-15.02-32.06-12.19-72.07-27.21-86.62-44.19-2.73-3.27-4.09-5.66-5.46-8.71-2.5-5.01-5.68-11.1-18.19-25.25-8.87-10.01-20.01-15.67-33.88-22.64-16.37-8.27-36.83-18.5-62.98-40.49-48.65-40.92-90.26-170.88-92.08-176.32,0-.22-7.05-21.33-29.1-27.21-3.86-1.09-8.18-1.31-12.5-1.31-21.37-.22-47.29-3.92-77.07-11.97h0c-49.11-13.28-92.76-33.52-95.26-34.61"/>
        <path d="M374.8,508.95c-6.14-1.74-12.05-3.27-17.73-5.01C153.36,446.69,26.72,395.76,25.58,395.32l2.5-5.66c1.36.44,127.55,51.16,330.8,108.41,140.51,39.62,316.02,73.58,354.67,59.43l2.27,5.66c-42.29,15.46-218.71-21.12-341.03-54.2Z"/>
        <path d="M388.21,500.02c-8.64-2.39-17.28-4.79-25.69-7.18-203.71-57.25-330.12-108.19-331.48-108.62l1.59-3.7c1.36.44,127.55,51.16,331.03,108.41,142.55,40.05,304.2,74.23,343.31,60.08l1.59,3.92c-37.97,13.5-183.93-15.89-320.34-52.9Z"/>
        <path d="M583.51,543.34c1.59-17.85-14.32-64.65-14.55-65.09l4.09-1.31c.68,1.96,16.37,48.11,14.55,66.61l-4.09-.22Z"/>
        <path d="M290.68,184.17l-2.96-3.05c5.46-4.79,32.51-28.73,43.2-24.82,10.46,3.92,21.14,35.26,22.28,38.75l-4.09,1.31c-4.09-12.63-13.19-33.74-19.78-36.14h-.23c-6.14-1.74-25.92,12.84-38.42,23.95Z"/>
        <path d="M609.43,532.24c-8.41-2.39-17.51-5.22-27.06-9.14l1.59-3.7c51.15,20.9,90.49,15.67,90.94,15.46l.68,4.14c-1.36.22-27.96,3.7-66.16-6.75Z"/>
        <path d="M424.36,507.86l-3.86-1.74c.23-.22,13.87-26.77,15.91-33.96.23-.87.68-1.96,1.14-3.05,2.73-7.18,6.82-17.85-17.28-38.09-27.74-23.29-65.25-74.01-74.34-100.79-.91-2.83-2.05-6.75-3.41-11.32-9.09-33.31-24.33-104.92-26.15-123.64-1.14-11.97-.23-14.15,2.05-14.8,1.82-.44,3.41.87,4.77,3.92l-2.96,1.31c0,1.52,0,4.35.45,9.14,1.82,18.5,16.82,89.9,26.15,122.99,1.14,4.57,2.27,8.27,3.41,11.1,7.96,23.73,43.2,74.01,72.98,98.83,26.37,21.99,21.6,34.39,18.64,42.67-.45.87-.68,1.74-.91,2.61-2.5,7.84-15.91,33.74-16.6,34.83Z"/>
        <path d="M265.44,303.02c-19.33-5.22-40.92-11.32-63.66-17.85-38.88-10.88-78.89-22.2-112.54-30.69l1.14-3.92c33.65,8.49,73.66,19.81,112.54,30.69,65.02,18.29,126.41,35.48,141.64,34.83l.23,4.14c-10.69.65-40.47-6.53-79.35-17.2Z"/>
        <path d="M150.86,235.11c-25.01-6.75-42.97-12.63-46.15-16.11l3.18-2.61c7.5,8.27,139.6,38.97,226.67,57.69l-.91,3.92c-15.69-3.48-120.5-25.9-182.79-42.88Z"/>
        <path d="M177,201.36c-32.74-8.92-58.43-17.2-60.93-22.2l3.86-1.74c4.55,8.71,128.68,38.53,205.98,55.29l-.91,3.92c-21.14-4.57-94.12-20.68-148.01-35.26Z"/>
        <path d="M385.26,473.47c-9.55-2.61-19.55-7.4-28.65-15.67-36.15-32.22-49.34-48.11-69.8-73.79-16.37-20.46-28.42-21.33-37.06-21.99-1.82-.22-3.64-.22-5.23-.44-1.82-.22-6.37-.44-12.73-.65-24.33-.44-74.8-1.52-121.18-17.85-4.77-1.74-7.05-20.24-8.18-35.7l-.23-2.83,2.96.65c.68.22,64.11,15.46,107.99,15.89l34.1,2.61c3.18,0,47.97-.87,65.93,29.82,13.41,23.07,34.33,46.8,62.52,70.75l.23.22c.91,1.09,24.55,27.43,52.97,12.84l2.05,3.7c-30.47,15.67-56.16-11.54-58.2-13.71-28.42-24.16-49.79-48.33-63.43-71.84-16.82-28.95-61.61-27.65-62.07-27.65h-.23l-34.1-2.61c-38.88-.44-92.99-12.41-105.95-15.24,1.14,13.28,3.41,27.43,5.46,29.39,45.47,15.89,95.49,16.98,119.59,17.41,6.82.22,11.37.22,13.41.65,1.36.22,3.18.44,4.77.44,9.55.65,22.74,1.52,40.24,23.51,20.23,25.47,33.42,41.36,69.34,73.14,34.79,30.91,79.35,10.88,79.8,10.67l1.82,3.7c-.68.44-27.28,12.41-56.16,4.57Z"/>
      </g>
      <path d="M343.2,243.38c-2.96-.87-5.23-2.18-6.37-4.14-1.82-3.05-2.05-6.31-.68-9.36,2.96-6.1,13.41-11.1,29.78-13.93l.68,3.92c-20.01,3.48-25.24,8.71-26.6,11.54-.91,1.74-.68,3.7.45,5.66,2.73,4.79,20.69,3.05,32.51.44l.91,3.92c-3.87,1.09-20.92,4.57-30.69,1.96Z"/>
      <path d="M356.38,286.04c-2.05-.65-3.86-1.52-5-3.05-2.27-2.83-2.73-6.1-1.82-9.14,2.27-6.53,11.82-12.41,27.74-17.2l1.36,3.92c-19.33,5.66-24.1,11.54-25.01,14.58-.68,1.96-.23,3.7,1.14,5.44,3.41,4.35,20.92.65,32.51-3.27l1.36,3.92c-4.09,1.52-22.51,7.62-32.28,4.79Z"/>
      <path d="M372.75,324.79c-2.05-.65-3.86-1.52-5-3.05-2.27-2.83-2.73-6.1-1.82-9.14,2.27-6.53,11.82-12.41,27.74-17.2l1.36,3.92c-19.33,5.66-24.1,11.54-25.01,14.58-.68,1.96-.23,3.7,1.14,5.44,3.41,4.35,20.92.65,32.51-3.27l1.36,3.92c-4.09,1.52-22.51,7.4-32.28,4.79Z"/>
      <path d="M393.9,364.41c-1.36-.44-2.5-.87-3.41-1.74-2.73-2.61-3.86-5.66-3.18-8.92,1.14-6.75,9.55-14.15,24.55-21.33l1.82,3.7c-18.19,8.71-21.83,15.24-22.28,18.29-.23,1.96.45,3.7,2.05,5.22,4.09,3.7,20.92-2.61,31.38-8.27l2.05,3.48c-4.09,2.39-23.19,12.19-32.97,9.58Z"/>
      <path d="M428.91,409.9c-.68-.22-1.14-.44-1.59-.65-3.18-1.96-5-4.57-5.46-7.84-.68-6.75,5.91-15.89,18.64-26.12l2.73,3.05c-15.46,12.63-17.28,19.59-17.05,22.86.23,1.96,1.14,3.48,3.41,4.57,4.77,2.83,19.55-7.18,28.42-15.24l2.96,3.05c-3.86,3.27-22.05,18.94-32.06,16.33Z"/>
      <path d="M468.7,442.12c-.23,0-.68-.22-.91-.44-3.41-1.52-5.68-3.92-6.14-7.18-1.36-6.75,4.09-16.33,15.46-28.08l3.18,2.83c-13.87,14.15-15.01,21.33-14.32,24.38.45,1.96,1.59,3.27,3.86,4.35,5,2.18,18.64-9.14,26.6-18.07l3.18,2.61c-3.64,3.92-20.92,22.2-30.92,19.59Z"/>
      <path d="M519.17,472.81c-.23,0-.68-.22-.91-.44-3.41-1.52-5.68-3.92-6.14-7.18-1.36-6.75,4.09-16.33,15.46-28.08l3.18,2.83c-13.87,14.15-15.01,21.33-14.32,24.38.45,1.96,1.59,3.27,3.86,4.35,5,2.18,18.64-9.14,26.6-18.07l3.18,2.61c-3.64,4.14-20.92,22.42-30.92,19.59Z"/>
    </g>
  </g>
</svg>